<svg xmlns="http://www.w3.org/2000/svg" version="1.1" xmlns:xlink="http://www.w3.org/1999/xlink" xmlns:svgjs="http://svgjs.dev/svgjs" width="128" height="128" viewBox="0 0 128 128"><g transform="matrix(0.8046875,0,0,0.8046875,12.22156084469131,12.221578124999994)"><svg viewBox="0 0 96 96" data-background-color="#000000" preserveAspectRatio="xMidYMid meet" height="128" width="128" xmlns="http://www.w3.org/2000/svg" xmlns:xlink="http://www.w3.org/1999/xlink"><g id="tight-bounds" transform="matrix(1,0,0,1,0.2595161059187774,0.25950000000000273)"><svg viewBox="0 0 95.48096778816245 95.481" height="95.481" width="95.48096778816245"><g><svg viewBox="0 0 95.48096778816245 95.481" height="95.481" width="95.48096778816245"><g><svg viewBox="0 0 95.48096778816245 95.481" height="95.481" width="95.48096778816245"><g id="textblocktransform"><svg viewBox="0 0 95.48096778816245 95.481" height="95.481" width="95.48096778816245" id="textblock"><g><svg viewBox="0 0 95.48096778816245 95.481" height="95.481" width="95.48096778816245"><g><svg viewBox="0 0 95.48096778816245 95.481" height="95.481" width="95.48096778816245"><g><svg xmlns="http://www.w3.org/2000/svg" viewBox="16.000179277640626 15.99999434982138 479.9998437578025 480.0000056924514" x="0" y="0" height="95.481" width="95.48096778816245" class="icon-icon-0" data-fill-palette-color="accent" id="icon-0"></svg></g></svg></g></svg></g></svg></g></svg></g></svg></g><defs></defs><mask id="f276e702-b829-45dd-aa64-4327bbbcb843"><g id="SvgjsG2263"><svg viewBox="0 0 95.48096778816245 95.481" height="95.481" width="95.48096778816245"><g><svg viewBox="0 0 95.48096778816245 95.481" height="95.481" width="95.48096778816245"><g><svg viewBox="0 0 95.48096778816245 95.481" height="95.481" width="95.48096778816245"><g id="SvgjsG2262"><svg viewBox="0 0 95.48096778816245 95.481" height="95.481" width="95.48096778816245" id="SvgjsSvg2261"><g><svg viewBox="0 0 95.48096778816245 95.481" height="95.481" width="95.48096778816245"><g><svg viewBox="0 0 95.48096778816245 95.481" height="95.481" width="95.48096778816245"><g><svg xmlns="http://www.w3.org/2000/svg" viewBox="16.000179277640626 15.99999434982138 479.9998437578025 480.0000056924514" x="0" y="0" height="95.481" width="95.48096778816245" class="icon-icon-0" data-fill-palette-color="accent" id="SvgjsSvg2260"><g fill="white"><path d="M478.188 287.844L476.425 286.67A31.8 31.8 0 0 0 480 272V224A16.02 16.02 0 0 0 464 208H448A32.036 32.036 0 0 0 416 240V272A31.8 31.8 0 0 0 419.575 286.669L417.812 287.844A40 40 0 0 0 408 297.142V256A16.02 16.02 0 0 0 392 240H376A32.036 32.036 0 0 0 344 272V297.142A40 40 0 0 0 334.188 287.844L332.425 286.67A31.8 31.8 0 0 0 336 272V224A16.02 16.02 0 0 0 320 208H304A32.036 32.036 0 0 0 272 240V272A31.8 31.8 0 0 0 275.575 286.669L273.812 287.844A39.92 39.92 0 0 0 256 321.126V352A8 8 0 0 0 264 360H328V384A8 8 0 0 0 336 392H416A8 8 0 0 0 424 384V360H488A8 8 0 0 0 496 352V321.126A39.92 39.92 0 0 0 478.188 287.844M448 288A16.02 16.02 0 0 1 432 272V256H464V272A16.02 16.02 0 0 1 448 288M448 224H464V240H432A16.02 16.02 0 0 1 448 224M426.688 301.157L430.38 298.694A31.8 31.8 0 0 0 440 302.987V344H422.936A39.85 39.85 0 0 0 416 329.142V321.126A23.95 23.95 0 0 1 426.688 301.156M360 304V288H392V304A16 16 0 0 1 360 304M376 256H392V272H360A16.02 16.02 0 0 1 376 256M336 321.126V329.142A39.85 39.85 0 0 0 329.064 344H312V302.987A31.9 31.9 0 0 0 321.619 298.694L325.312 301.157A23.95 23.95 0 0 1 336 321.126M288 272V256H320V272A16 16 0 0 1 288 272M304 224H320V240H288A16.02 16.02 0 0 1 304 224M272 321.126A23.95 23.95 0 0 1 282.688 301.156L286.38 298.695A31.8 31.8 0 0 0 296 302.987V344H272ZM408 376H344V353.126A23.95 23.95 0 0 1 354.688 333.156L358.38 330.695A31.91 31.91 0 0 0 393.619 330.694L397.312 333.157A23.95 23.95 0 0 1 408 353.126ZM480 344H456V302.987A31.9 31.9 0 0 0 465.619 298.694L469.312 301.157A23.95 23.95 0 0 1 480 321.126Z" fill="white"></path><path d="M152 152H160A24.03 24.03 0 0 0 184 128V120H168V128A8.01 8.01 0 0 1 160 136H152Z" fill="white"></path><circle cx="144" cy="104" r="8.0" fill="white"></circle><circle cx="192" cy="104.29773" r="8.0" fill="white"></circle><path d="M57.49 436.65A8 8 0 0 0 64 440V488A8 8 0 0 0 72 496H304A8 8 0 0 0 311.892 489.315L323.892 417.315 308.108 414.685 297.223 480H272V392H271.993A7.98 7.98 0 0 0 269.657 386.343L261.657 378.343A8 8 0 0 0 252.422 376.845L222.112 392H219.312L221.657 389.657A8 8 0 0 0 224 384V368A8 8 0 0 0 216 360H192A8 8 0 0 0 188.422 360.845L159.069 375.52 103.03 361.511 95.892 318.685 80.108 321.315 88.108 369.315A8 8 0 0 0 94.06 375.761L152 390.246V424H68.117L32.462 374.083 53.229 256.4A23.9 23.9 0 0 1 65.208 239.59L115.945 211.404 160.572 322.97A8 8 0 0 0 175.428 322.971L220.055 211.404 252.115 229.215 259.885 215.23 221.58 193.949 209.853 176.357A63.86 63.86 0 0 0 232 128V48A32.036 32.036 0 0 0 200 16H168A31.86 31.86 0 0 0 146.868 24H128A24.027 24.027 0 0 0 104 48V128A63.86 63.86 0 0 0 126.147 176.357L114.42 193.949 57.438 225.605A39.83 39.83 0 0 0 37.474 253.62L16.122 374.61A8 8 0 0 0 17.49 380.65ZM193.89 376H208V380.686L194.343 394.343A8 8 0 0 0 200 408H224A8 8 0 0 0 227.578 407.155L251 395.445 228.155 424H168V388.944ZM160 440H232A8 8 0 0 0 238.247 436.998L256 414.806V480H80V440ZM136.587 189.54L157.28 215.407 141.208 231.48 128.99 200.936ZM207.01 200.937L194.792 231.479 178.72 215.406 199.413 189.541ZM168 203.194L158.475 191.288A64 64 0 0 0 177.525 191.288ZM168 298.459L147.673 247.641 168 227.314 188.327 247.641ZM168 32H200A16.02 16.02 0 0 1 216 48V64H168A16 16 0 0 1 168 32M120 48A8.01 8.01 0 0 1 128 40H137.013A31.97 31.97 0 0 0 137.682 58.215L120 67.055ZM120 128V84.944L146.51 71.69A31.88 31.88 0 0 0 168 80H216V128A48 48 0 0 1 120 128" fill="white"></path></g></svg></g></svg></g></svg></g></svg></g></svg></g></svg></g><defs><mask></mask></defs></svg><rect width="95.48096778816245" height="95.481" fill="black" stroke="none" visibility="hidden"></rect></g></mask><linearGradient x1="0" x2="1" y1="0.578" y2="0.595" id="908bfdf0-62d9-4a07-939a-414a3bc1ec91"><stop stop-color="#6ee2f5" offset="0"></stop><stop stop-color="#6454f0" offset="1"></stop></linearGradient><rect width="95.48096778816245" height="95.481" fill="url(#908bfdf0-62d9-4a07-939a-414a3bc1ec91)" mask="url(#f276e702-b829-45dd-aa64-4327bbbcb843)" data-fill-palette-color="accent"></rect></svg><rect width="95.48096778816245" height="95.481" fill="none" stroke="none" visibility="hidden"></rect></g></svg></g></svg>