<svg xmlns="http://www.w3.org/2000/svg" version="1.1" xmlns:xlink="http://www.w3.org/1999/xlink" xmlns:svgjs="http://svgjs.dev/svgjs" width="2000" height="540" viewBox="0 0 2000 540"><g transform="matrix(1,0,0,1,-1.2121212121212466,-2.3160410218034144)"><svg viewBox="0 0 396 107" data-background-color="#000000" preserveAspectRatio="xMidYMid meet" height="540" width="2000" xmlns="http://www.w3.org/2000/svg" xmlns:xlink="http://www.w3.org/1999/xlink"><g id="tight-bounds" transform="matrix(1,0,0,1,0.2400000000000091,0.45891923950549085)"><svg viewBox="0 0 395.52 106.08188269429053" height="106.08188269429053" width="395.52"><rect width="395.52" height="106.08216152098906" fill="url(#49dc2223-d3f5-42ab-9ce0-30283e9ea784)" mask="url(#c2226f1e-647d-41e4-a941-424946454da6)" data-fill-palette-color="tertiary"></rect><g><svg viewBox="0 0 582.697810015586 156.28458921999746" height="106.08188269429053" width="395.52"><g transform="matrix(1,0,0,1,187.177810015586,45.42696056970181)"><svg viewBox="0 0 395.52 65.43066808059383" height="65.43066808059383" width="395.52"><g id="textblocktransform"><svg viewBox="0 0 395.52 65.43066808059383" height="65.43066808059383" width="395.52" id="textblock"><g><svg viewBox="0 0 395.52 65.43066808059383" height="65.43066808059383" width="395.52"><g transform="matrix(1,0,0,1,0,0)"><svg width="395.52" viewBox="3.5 -38.5 235.73 39" height="65.43066808059383" data-palette-color="url(#4d18ee5c-63ce-4829-8956-a00d91284f6b)"></svg></g></svg></g></svg></g></svg></g><g><svg viewBox="0 0 156.28458921999746 156.28458921999746" height="156.28458921999746" width="156.28458921999746"><g><svg></svg></g><g id="icon-0"><svg viewBox="0 0 156.28458921999746 156.28458921999746" height="156.28458921999746" width="156.28458921999746"><g><path d="M0 78.142c0-43.157 34.986-78.142 78.142-78.142 43.157 0 78.142 34.986 78.143 78.142 0 43.157-34.986 78.142-78.143 78.143-43.157 0-78.142-34.986-78.142-78.143zM78.142 150.384c39.898 0 72.242-32.344 72.242-72.242 0-39.898-32.344-72.242-72.242-72.241-39.898 0-72.242 32.344-72.241 72.241 0 39.898 32.344 72.242 72.241 72.242z" data-fill-palette-color="tertiary" fill="url(#49dc2223-d3f5-42ab-9ce0-30283e9ea784)" stroke="transparent"></path></g><g transform="matrix(1,0,0,1,35.70167405145553,35.70165973351964)"><svg viewBox="0 0 84.8812411170864 84.88126975295818" height="84.88126975295818" width="84.8812411170864"><g><svg xmlns="http://www.w3.org/2000/svg" viewBox="16.000179277640626 15.99999434982138 479.9998437578025 480.0000056924514" x="0" y="0" height="84.88126975295818" width="84.8812411170864" class="icon-dxe-0" data-fill-palette-color="accent" id="dxe-0"></svg></g></svg></g></svg></g></svg></g></svg></g><defs></defs><mask id="8f451e48-ef7f-4b8b-a35d-2d42c7e3ec1a"><g id="SvgjsG2068"><svg viewBox="0 0 395.52 106.08188269429053" height="106.08188269429053" width="395.52"><g><svg viewBox="0 0 582.697810015586 156.28458921999746" height="106.08188269429053" width="395.52"><g transform="matrix(1,0,0,1,187.177810015586,45.42696056970181)"><svg viewBox="0 0 395.52 65.43066808059383" height="65.43066808059383" width="395.52"><g id="SvgjsG2067"><svg viewBox="0 0 395.52 65.43066808059383" height="65.43066808059383" width="395.52" id="SvgjsSvg2066"><g><svg viewBox="0 0 395.52 65.43066808059383" height="65.43066808059383" width="395.52"><g transform="matrix(1,0,0,1,0,0)"><svg width="395.52" viewBox="3.5 -38.5 235.73 39" height="65.43066808059383" data-palette-color="url(#4d18ee5c-63ce-4829-8956-a00d91284f6b)"><path d="M6.6-31.55L6.6-31.55Q5.25-31.55 4.38-32.45 3.5-33.35 3.5-34.6L3.5-34.6Q3.5-35.9 4.38-36.8 5.25-37.7 6.6-37.7L6.6-37.7Q7.9-37.7 8.8-36.8 9.7-35.9 9.7-34.6L9.7-34.6Q9.7-33.35 8.8-32.45 7.9-31.55 6.6-31.55ZM9 0L4.25 0 4.25-26.5 9-26.5 9 0ZM21.45 0L16.7 0 16.7-26.5 21.45-26.5 21.45-22.65 21.75-22.65Q22.1-23.25 22.92-24.3 23.75-25.35 25.3-26.18 26.85-27 29.2-27L29.2-27Q32.1-27 34.15-25.68 36.2-24.35 37.27-22.1 38.35-19.85 38.35-17.05L38.35-17.05 38.35 0 33.6 0 33.6-16.75Q33.6-19.4 32.12-21.15 30.65-22.9 27.85-22.9L27.85-22.9Q25.6-22.9 24.2-21.78 22.8-20.65 22.12-18.82 21.45-17 21.45-14.95L21.45-14.95 21.45 0ZM53.2 0L48.45 0 48.45-22.6 44.1-22.6 44.1-26.5 48.45-26.5 48.45-29.75Q48.45-31.85 49.2-33.88 49.95-35.9 51.7-37.2 53.45-38.5 56.45-38.5L56.45-38.5Q57.9-38.5 58.77-38.27 59.65-38.05 59.65-38.05L59.65-38.05 59.65-34.3Q59.65-34.3 58.87-34.48 58.1-34.65 57.1-34.65L57.1-34.65Q54.8-34.65 54-33.25 53.2-31.85 53.2-29.75L53.2-29.75 53.2-26.5 59.35-26.5 59.35-22.6 53.2-22.6 53.2 0ZM69.89 0L65.14 0 65.19-38 69.89-38 69.89 0ZM86.04 0.5L86.04 0.5Q82.09 0.5 79.74-1.95 77.39-4.4 77.39-8.75L77.39-8.75 77.39-26.5 82.14-26.5 82.14-9Q82.14-6.4 83.57-5 84.99-3.6 87.34-3.6L87.34-3.6Q89.74-3.6 91.19-4.85 92.64-6.1 93.29-8.05 93.94-10 93.94-12.05L93.94-12.05 93.94-26.5 98.69-26.5 98.69 0 93.94 0 93.94-3.8 93.64-3.8Q93.34-3.2 92.49-2.18 91.64-1.15 90.09-0.33 88.54 0.5 86.04 0.5ZM117.74 0.5L117.74 0.5Q114.49 0.5 112.11-0.68 109.74-1.85 108.21-3.85 106.69-5.85 105.94-8.28 105.19-10.7 105.19-13.25L105.19-13.25Q105.19-15.75 105.91-18.2 106.64-20.65 108.16-22.65 109.69-24.65 112.01-25.83 114.34-27 117.54-27L117.54-27Q120.94-27 123.54-25.45 126.14-23.9 127.64-20.85 129.14-17.8 129.14-13.2L129.14-13.2 129.14-11.8 109.99-11.8Q110.14-9.55 111.06-7.68 111.99-5.8 113.69-4.67 115.39-3.55 117.74-3.55L117.74-3.55Q119.79-3.55 121.06-4.23 122.34-4.9 123.09-5.8 123.84-6.7 124.11-7.38 124.39-8.05 124.39-8.05L124.39-8.05 128.84-8.05Q128.84-8.05 128.59-7.18 128.34-6.3 127.69-5.05 127.04-3.8 125.79-2.53 124.54-1.25 122.59-0.38 120.64 0.5 117.74 0.5ZM110.04-15.5L110.04-15.5 124.49-15.5Q124.39-18.1 123.39-19.73 122.39-21.35 120.84-22.15 119.29-22.95 117.54-22.95L117.54-22.95Q114.39-22.95 112.39-20.93 110.39-18.9 110.04-15.5ZM140.39 0L135.64 0 135.64-26.5 140.39-26.5 140.39-22.65 140.69-22.65Q141.04-23.25 141.86-24.3 142.69-25.35 144.24-26.18 145.79-27 148.14-27L148.14-27Q151.04-27 153.09-25.68 155.14-24.35 156.21-22.1 157.29-19.85 157.29-17.05L157.29-17.05 157.29 0 152.54 0 152.54-16.75Q152.54-19.4 151.06-21.15 149.59-22.9 146.79-22.9L146.79-22.9Q144.54-22.9 143.14-21.78 141.74-20.65 141.06-18.82 140.39-17 140.39-14.95L140.39-14.95 140.39 0ZM176.83 0.5L176.83 0.5Q173.58 0.5 171.13-0.68 168.68-1.85 167.06-3.83 165.43-5.8 164.61-8.25 163.78-10.7 163.78-13.25L163.78-13.25Q163.78-15.8 164.58-18.23 165.38-20.65 167.01-22.65 168.63-24.65 171.08-25.83 173.53-27 176.83-27L176.83-27Q180.03-27 182.13-26.05 184.23-25.1 185.51-23.68 186.78-22.25 187.41-20.83 188.03-19.4 188.23-18.45 188.43-17.5 188.43-17.5L188.43-17.5 183.83-17.5Q183.83-17.5 183.58-18.32 183.33-19.15 182.63-20.2 181.93-21.25 180.53-22.08 179.13-22.9 176.83-22.9L176.83-22.9Q174.08-22.9 172.21-21.53 170.33-20.15 169.41-17.95 168.48-15.75 168.48-13.25L168.48-13.25Q168.48-10.75 169.41-8.55 170.33-6.35 172.21-4.98 174.08-3.6 176.83-3.6L176.83-3.6Q179.13-3.6 180.53-4.42 181.93-5.25 182.63-6.3 183.33-7.35 183.58-8.18 183.83-9 183.83-9L183.83-9 188.43-9Q188.43-9 188.23-8.05 188.03-7.1 187.41-5.68 186.78-4.25 185.51-2.83 184.23-1.4 182.13-0.45 180.03 0.5 176.83 0.5ZM206.98 0.5L206.98 0.5Q203.73 0.5 201.36-0.68 198.98-1.85 197.46-3.85 195.93-5.85 195.18-8.28 194.43-10.7 194.43-13.25L194.43-13.25Q194.43-15.75 195.16-18.2 195.88-20.65 197.41-22.65 198.93-24.65 201.26-25.83 203.58-27 206.78-27L206.78-27Q210.18-27 212.78-25.45 215.38-23.9 216.88-20.85 218.38-17.8 218.38-13.2L218.38-13.2 218.38-11.8 199.23-11.8Q199.38-9.55 200.31-7.68 201.23-5.8 202.93-4.67 204.63-3.55 206.98-3.55L206.98-3.55Q209.03-3.55 210.31-4.23 211.58-4.9 212.33-5.8 213.08-6.7 213.36-7.38 213.63-8.05 213.63-8.05L213.63-8.05 218.08-8.05Q218.08-8.05 217.83-7.18 217.58-6.3 216.93-5.05 216.28-3.8 215.03-2.53 213.78-1.25 211.83-0.38 209.88 0.5 206.98 0.5ZM199.28-15.5L199.28-15.5 213.73-15.5Q213.63-18.1 212.63-19.73 211.63-21.35 210.08-22.15 208.53-22.95 206.78-22.95L206.78-22.95Q203.63-22.95 201.63-20.93 199.63-18.9 199.28-15.5ZM229.63 0L224.88 0 224.88-26.5 229.63-26.5 229.63-23.2 229.83-23.2Q230.68-24.7 232.33-25.85 233.98-27 236.98-27L236.98-27Q237.83-27 238.53-26.93 239.23-26.85 239.23-26.85L239.23-26.85 239.23-22.3Q239.23-22.3 238.45-22.38 237.68-22.45 236.83-22.45L236.83-22.45Q233.38-22.45 231.5-20.48 229.63-18.5 229.63-14.05L229.63-14.05 229.63 0Z" opacity="1" transform="matrix(1,0,0,1,0,0)" fill="white" class="wordmark-text-0" id="SvgjsPath2065"></path></svg></g></svg></g></svg></g></svg></g><g><svg viewBox="0 0 156.28458921999746 156.28458921999746" height="156.28458921999746" width="156.28458921999746"><g><svg></svg></g><g id="SvgjsG2064"><svg viewBox="0 0 156.28458921999746 156.28458921999746" height="156.28458921999746" width="156.28458921999746"><g><path d="M0 78.142c0-43.157 34.986-78.142 78.142-78.142 43.157 0 78.142 34.986 78.143 78.142 0 43.157-34.986 78.142-78.143 78.143-43.157 0-78.142-34.986-78.142-78.143zM78.142 150.384c39.898 0 72.242-32.344 72.242-72.242 0-39.898-32.344-72.242-72.242-72.241-39.898 0-72.242 32.344-72.241 72.241 0 39.898 32.344 72.242 72.241 72.242z" fill="black" stroke="transparent"></path></g><g transform="matrix(1,0,0,1,35.70167405145553,35.70165973351964)"><svg viewBox="0 0 84.8812411170864 84.88126975295818" height="84.88126975295818" width="84.8812411170864"><g><svg xmlns="http://www.w3.org/2000/svg" viewBox="16.000179277640626 15.99999434982138 479.9998437578025 480.0000056924514" x="0" y="0" height="84.88126975295818" width="84.8812411170864" class="icon-dxe-0" data-fill-palette-color="accent" id="SvgjsSvg2063"><g fill="black"><path d="M478.188 287.844L476.425 286.67A31.8 31.8 0 0 0 480 272V224A16.02 16.02 0 0 0 464 208H448A32.036 32.036 0 0 0 416 240V272A31.8 31.8 0 0 0 419.575 286.669L417.812 287.844A40 40 0 0 0 408 297.142V256A16.02 16.02 0 0 0 392 240H376A32.036 32.036 0 0 0 344 272V297.142A40 40 0 0 0 334.188 287.844L332.425 286.67A31.8 31.8 0 0 0 336 272V224A16.02 16.02 0 0 0 320 208H304A32.036 32.036 0 0 0 272 240V272A31.8 31.8 0 0 0 275.575 286.669L273.812 287.844A39.92 39.92 0 0 0 256 321.126V352A8 8 0 0 0 264 360H328V384A8 8 0 0 0 336 392H416A8 8 0 0 0 424 384V360H488A8 8 0 0 0 496 352V321.126A39.92 39.92 0 0 0 478.188 287.844M448 288A16.02 16.02 0 0 1 432 272V256H464V272A16.02 16.02 0 0 1 448 288M448 224H464V240H432A16.02 16.02 0 0 1 448 224M426.688 301.157L430.38 298.694A31.8 31.8 0 0 0 440 302.987V344H422.936A39.85 39.85 0 0 0 416 329.142V321.126A23.95 23.95 0 0 1 426.688 301.156M360 304V288H392V304A16 16 0 0 1 360 304M376 256H392V272H360A16.02 16.02 0 0 1 376 256M336 321.126V329.142A39.85 39.85 0 0 0 329.064 344H312V302.987A31.9 31.9 0 0 0 321.619 298.694L325.312 301.157A23.95 23.95 0 0 1 336 321.126M288 272V256H320V272A16 16 0 0 1 288 272M304 224H320V240H288A16.02 16.02 0 0 1 304 224M272 321.126A23.95 23.95 0 0 1 282.688 301.156L286.38 298.695A31.8 31.8 0 0 0 296 302.987V344H272ZM408 376H344V353.126A23.95 23.95 0 0 1 354.688 333.156L358.38 330.695A31.91 31.91 0 0 0 393.619 330.694L397.312 333.157A23.95 23.95 0 0 1 408 353.126ZM480 344H456V302.987A31.9 31.9 0 0 0 465.619 298.694L469.312 301.157A23.95 23.95 0 0 1 480 321.126Z" fill="black"></path><path d="M152 152H160A24.03 24.03 0 0 0 184 128V120H168V128A8.01 8.01 0 0 1 160 136H152Z" fill="black"></path><circle cx="144" cy="104" r="8.0" fill="black"></circle><circle cx="192" cy="104.29773" r="8.0" fill="black"></circle><path d="M57.49 436.65A8 8 0 0 0 64 440V488A8 8 0 0 0 72 496H304A8 8 0 0 0 311.892 489.315L323.892 417.315 308.108 414.685 297.223 480H272V392H271.993A7.98 7.98 0 0 0 269.657 386.343L261.657 378.343A8 8 0 0 0 252.422 376.845L222.112 392H219.312L221.657 389.657A8 8 0 0 0 224 384V368A8 8 0 0 0 216 360H192A8 8 0 0 0 188.422 360.845L159.069 375.52 103.03 361.511 95.892 318.685 80.108 321.315 88.108 369.315A8 8 0 0 0 94.06 375.761L152 390.246V424H68.117L32.462 374.083 53.229 256.4A23.9 23.9 0 0 1 65.208 239.59L115.945 211.404 160.572 322.97A8 8 0 0 0 175.428 322.971L220.055 211.404 252.115 229.215 259.885 215.23 221.58 193.949 209.853 176.357A63.86 63.86 0 0 0 232 128V48A32.036 32.036 0 0 0 200 16H168A31.86 31.86 0 0 0 146.868 24H128A24.027 24.027 0 0 0 104 48V128A63.86 63.86 0 0 0 126.147 176.357L114.42 193.949 57.438 225.605A39.83 39.83 0 0 0 37.474 253.62L16.122 374.61A8 8 0 0 0 17.49 380.65ZM193.89 376H208V380.686L194.343 394.343A8 8 0 0 0 200 408H224A8 8 0 0 0 227.578 407.155L251 395.445 228.155 424H168V388.944ZM160 440H232A8 8 0 0 0 238.247 436.998L256 414.806V480H80V440ZM136.587 189.54L157.28 215.407 141.208 231.48 128.99 200.936ZM207.01 200.937L194.792 231.479 178.72 215.406 199.413 189.541ZM168 203.194L158.475 191.288A64 64 0 0 0 177.525 191.288ZM168 298.459L147.673 247.641 168 227.314 188.327 247.641ZM168 32H200A16.02 16.02 0 0 1 216 48V64H168A16 16 0 0 1 168 32M120 48A8.01 8.01 0 0 1 128 40H137.013A31.97 31.97 0 0 0 137.682 58.215L120 67.055ZM120 128V84.944L146.51 71.69A31.88 31.88 0 0 0 168 80H216V128A48 48 0 0 1 120 128" fill="black"></path></g></svg></g></svg></g></svg></g></svg></g></svg></g><defs><mask></mask></defs></svg><rect width="395.52" height="106.08188269429053" fill="black" stroke="none" visibility="hidden"></rect></g></mask><linearGradient x1="0" x2="1" y1="0.578" y2="0.595" id="4d18ee5c-63ce-4829-8956-a00d91284f6b"><stop stop-color="#6ee2f5" offset="0"></stop><stop stop-color="#6454f0" offset="1"></stop></linearGradient><rect width="395.52" height="106.08216152098906" fill="url(#4d18ee5c-63ce-4829-8956-a00d91284f6b)" mask="url(#8f451e48-ef7f-4b8b-a35d-2d42c7e3ec1a)" data-fill-palette-color="primary"></rect><mask id="28137051-173a-4115-b3c0-936d337ad4cd"><g id="SvgjsG2091"><svg viewBox="0 0 395.52 106.08188269429053" height="106.08188269429053" width="395.52"><g><svg viewBox="0 0 582.697810015586 156.28458921999746" height="106.08188269429053" width="395.52"><g transform="matrix(1,0,0,1,187.177810015586,45.42696056970181)"><svg viewBox="0 0 395.52 65.43066808059383" height="65.43066808059383" width="395.52"><g id="SvgjsG2090"><svg viewBox="0 0 395.52 65.43066808059383" height="65.43066808059383" width="395.52" id="SvgjsSvg2089"><g><svg viewBox="0 0 395.52 65.43066808059383" height="65.43066808059383" width="395.52"><g transform="matrix(1,0,0,1,0,0)"><svg width="395.52" viewBox="3.5 -38.5 235.73 39" height="65.43066808059383" data-palette-color="url(#4d18ee5c-63ce-4829-8956-a00d91284f6b)"></svg></g></svg></g></svg></g></svg></g><g><svg viewBox="0 0 156.28458921999746 156.28458921999746" height="156.28458921999746" width="156.28458921999746"><g><svg></svg></g><g id="SvgjsG2088"><svg viewBox="0 0 156.28458921999746 156.28458921999746" height="156.28458921999746" width="156.28458921999746"><g><path d="M0 78.142c0-43.157 34.986-78.142 78.142-78.142 43.157 0 78.142 34.986 78.143 78.142 0 43.157-34.986 78.142-78.143 78.143-43.157 0-78.142-34.986-78.142-78.143zM78.142 150.384c39.898 0 72.242-32.344 72.242-72.242 0-39.898-32.344-72.242-72.242-72.241-39.898 0-72.242 32.344-72.241 72.241 0 39.898 32.344 72.242 72.241 72.242z" fill="black" stroke="transparent"></path></g><g transform="matrix(1,0,0,1,35.70167405145553,35.70165973351964)"><svg viewBox="0 0 84.8812411170864 84.88126975295818" height="84.88126975295818" width="84.8812411170864"><g><svg xmlns="http://www.w3.org/2000/svg" viewBox="16.000179277640626 15.99999434982138 479.9998437578025 480.0000056924514" x="0" y="0" height="84.88126975295818" width="84.8812411170864" class="icon-dxe-0" data-fill-palette-color="accent" id="SvgjsSvg2087"><g fill="white"><path d="M478.188 287.844L476.425 286.67A31.8 31.8 0 0 0 480 272V224A16.02 16.02 0 0 0 464 208H448A32.036 32.036 0 0 0 416 240V272A31.8 31.8 0 0 0 419.575 286.669L417.812 287.844A40 40 0 0 0 408 297.142V256A16.02 16.02 0 0 0 392 240H376A32.036 32.036 0 0 0 344 272V297.142A40 40 0 0 0 334.188 287.844L332.425 286.67A31.8 31.8 0 0 0 336 272V224A16.02 16.02 0 0 0 320 208H304A32.036 32.036 0 0 0 272 240V272A31.8 31.8 0 0 0 275.575 286.669L273.812 287.844A39.92 39.92 0 0 0 256 321.126V352A8 8 0 0 0 264 360H328V384A8 8 0 0 0 336 392H416A8 8 0 0 0 424 384V360H488A8 8 0 0 0 496 352V321.126A39.92 39.92 0 0 0 478.188 287.844M448 288A16.02 16.02 0 0 1 432 272V256H464V272A16.02 16.02 0 0 1 448 288M448 224H464V240H432A16.02 16.02 0 0 1 448 224M426.688 301.157L430.38 298.694A31.8 31.8 0 0 0 440 302.987V344H422.936A39.85 39.85 0 0 0 416 329.142V321.126A23.95 23.95 0 0 1 426.688 301.156M360 304V288H392V304A16 16 0 0 1 360 304M376 256H392V272H360A16.02 16.02 0 0 1 376 256M336 321.126V329.142A39.85 39.85 0 0 0 329.064 344H312V302.987A31.9 31.9 0 0 0 321.619 298.694L325.312 301.157A23.95 23.95 0 0 1 336 321.126M288 272V256H320V272A16 16 0 0 1 288 272M304 224H320V240H288A16.02 16.02 0 0 1 304 224M272 321.126A23.95 23.95 0 0 1 282.688 301.156L286.38 298.695A31.8 31.8 0 0 0 296 302.987V344H272ZM408 376H344V353.126A23.95 23.95 0 0 1 354.688 333.156L358.38 330.695A31.91 31.91 0 0 0 393.619 330.694L397.312 333.157A23.95 23.95 0 0 1 408 353.126ZM480 344H456V302.987A31.9 31.9 0 0 0 465.619 298.694L469.312 301.157A23.95 23.95 0 0 1 480 321.126Z" fill="white"></path><path d="M152 152H160A24.03 24.03 0 0 0 184 128V120H168V128A8.01 8.01 0 0 1 160 136H152Z" fill="white"></path><circle cx="144" cy="104" r="8.0" fill="white"></circle><circle cx="192" cy="104.29773" r="8.0" fill="white"></circle><path d="M57.49 436.65A8 8 0 0 0 64 440V488A8 8 0 0 0 72 496H304A8 8 0 0 0 311.892 489.315L323.892 417.315 308.108 414.685 297.223 480H272V392H271.993A7.98 7.98 0 0 0 269.657 386.343L261.657 378.343A8 8 0 0 0 252.422 376.845L222.112 392H219.312L221.657 389.657A8 8 0 0 0 224 384V368A8 8 0 0 0 216 360H192A8 8 0 0 0 188.422 360.845L159.069 375.52 103.03 361.511 95.892 318.685 80.108 321.315 88.108 369.315A8 8 0 0 0 94.06 375.761L152 390.246V424H68.117L32.462 374.083 53.229 256.4A23.9 23.9 0 0 1 65.208 239.59L115.945 211.404 160.572 322.97A8 8 0 0 0 175.428 322.971L220.055 211.404 252.115 229.215 259.885 215.23 221.58 193.949 209.853 176.357A63.86 63.86 0 0 0 232 128V48A32.036 32.036 0 0 0 200 16H168A31.86 31.86 0 0 0 146.868 24H128A24.027 24.027 0 0 0 104 48V128A63.86 63.86 0 0 0 126.147 176.357L114.42 193.949 57.438 225.605A39.83 39.83 0 0 0 37.474 253.62L16.122 374.61A8 8 0 0 0 17.49 380.65ZM193.89 376H208V380.686L194.343 394.343A8 8 0 0 0 200 408H224A8 8 0 0 0 227.578 407.155L251 395.445 228.155 424H168V388.944ZM160 440H232A8 8 0 0 0 238.247 436.998L256 414.806V480H80V440ZM136.587 189.54L157.28 215.407 141.208 231.48 128.99 200.936ZM207.01 200.937L194.792 231.479 178.72 215.406 199.413 189.541ZM168 203.194L158.475 191.288A64 64 0 0 0 177.525 191.288ZM168 298.459L147.673 247.641 168 227.314 188.327 247.641ZM168 32H200A16.02 16.02 0 0 1 216 48V64H168A16 16 0 0 1 168 32M120 48A8.01 8.01 0 0 1 128 40H137.013A31.97 31.97 0 0 0 137.682 58.215L120 67.055ZM120 128V84.944L146.51 71.69A31.88 31.88 0 0 0 168 80H216V128A48 48 0 0 1 120 128" fill="white"></path></g></svg></g></svg></g></svg></g></svg></g></svg></g><defs><mask></mask></defs><mask><g id="SvgjsG2086"><svg viewBox="0 0 395.52 106.08188269429053" height="106.08188269429053" width="395.52"><g><svg viewBox="0 0 582.697810015586 156.28458921999746" height="106.08188269429053" width="395.52"><g transform="matrix(1,0,0,1,187.177810015586,45.42696056970181)"><svg viewBox="0 0 395.52 65.43066808059383" height="65.43066808059383" width="395.52"><g id="SvgjsG2085"><svg viewBox="0 0 395.52 65.43066808059383" height="65.43066808059383" width="395.52" id="SvgjsSvg2084"><g><svg viewBox="0 0 395.52 65.43066808059383" height="65.43066808059383" width="395.52"><g transform="matrix(1,0,0,1,0,0)"><svg width="395.52" viewBox="3.5 -38.5 235.73 39" height="65.43066808059383" data-palette-color="url(#4d18ee5c-63ce-4829-8956-a00d91284f6b)"><path d="M6.6-31.55L6.6-31.55Q5.25-31.55 4.38-32.45 3.5-33.35 3.5-34.6L3.5-34.6Q3.5-35.9 4.38-36.8 5.25-37.7 6.6-37.7L6.6-37.7Q7.9-37.7 8.8-36.8 9.7-35.9 9.7-34.6L9.7-34.6Q9.7-33.35 8.8-32.45 7.9-31.55 6.6-31.55ZM9 0L4.25 0 4.25-26.5 9-26.5 9 0ZM21.45 0L16.7 0 16.7-26.5 21.45-26.5 21.45-22.65 21.75-22.65Q22.1-23.25 22.92-24.3 23.75-25.35 25.3-26.18 26.85-27 29.2-27L29.2-27Q32.1-27 34.15-25.68 36.2-24.35 37.27-22.1 38.35-19.85 38.35-17.05L38.35-17.05 38.35 0 33.6 0 33.6-16.75Q33.6-19.4 32.12-21.15 30.65-22.9 27.85-22.9L27.85-22.9Q25.6-22.9 24.2-21.78 22.8-20.65 22.12-18.82 21.45-17 21.45-14.95L21.45-14.95 21.45 0ZM53.2 0L48.45 0 48.45-22.6 44.1-22.6 44.1-26.5 48.45-26.5 48.45-29.75Q48.45-31.85 49.2-33.88 49.95-35.9 51.7-37.2 53.45-38.5 56.45-38.5L56.45-38.5Q57.9-38.5 58.77-38.27 59.65-38.05 59.65-38.05L59.65-38.05 59.65-34.3Q59.65-34.3 58.87-34.48 58.1-34.65 57.1-34.65L57.1-34.65Q54.8-34.65 54-33.25 53.2-31.85 53.2-29.75L53.2-29.75 53.2-26.5 59.35-26.5 59.35-22.6 53.2-22.6 53.2 0ZM69.89 0L65.14 0 65.19-38 69.89-38 69.89 0ZM86.04 0.5L86.04 0.5Q82.09 0.5 79.74-1.95 77.39-4.4 77.39-8.75L77.39-8.75 77.39-26.5 82.14-26.5 82.14-9Q82.14-6.4 83.57-5 84.99-3.6 87.34-3.6L87.34-3.6Q89.74-3.6 91.19-4.85 92.64-6.1 93.29-8.05 93.94-10 93.94-12.05L93.94-12.05 93.94-26.5 98.69-26.5 98.69 0 93.94 0 93.94-3.8 93.64-3.8Q93.34-3.2 92.49-2.18 91.64-1.15 90.09-0.33 88.54 0.5 86.04 0.5ZM117.74 0.5L117.74 0.5Q114.49 0.5 112.11-0.68 109.74-1.85 108.21-3.85 106.69-5.85 105.94-8.28 105.19-10.7 105.19-13.25L105.19-13.25Q105.19-15.75 105.91-18.2 106.64-20.65 108.16-22.65 109.69-24.65 112.01-25.83 114.34-27 117.54-27L117.54-27Q120.94-27 123.54-25.45 126.14-23.9 127.64-20.85 129.14-17.8 129.14-13.2L129.14-13.2 129.14-11.8 109.99-11.8Q110.14-9.55 111.06-7.68 111.99-5.8 113.69-4.67 115.39-3.55 117.74-3.55L117.74-3.55Q119.79-3.55 121.06-4.23 122.34-4.9 123.09-5.8 123.84-6.7 124.11-7.38 124.39-8.05 124.39-8.05L124.39-8.05 128.84-8.05Q128.84-8.05 128.59-7.18 128.34-6.3 127.69-5.05 127.04-3.8 125.79-2.53 124.54-1.25 122.59-0.38 120.64 0.5 117.74 0.5ZM110.04-15.5L110.04-15.5 124.49-15.5Q124.39-18.1 123.39-19.73 122.39-21.35 120.84-22.15 119.29-22.95 117.54-22.95L117.54-22.95Q114.39-22.95 112.39-20.93 110.39-18.9 110.04-15.5ZM140.39 0L135.64 0 135.64-26.5 140.39-26.5 140.39-22.65 140.69-22.65Q141.04-23.25 141.86-24.3 142.69-25.35 144.24-26.18 145.79-27 148.14-27L148.14-27Q151.04-27 153.09-25.68 155.14-24.35 156.21-22.1 157.29-19.85 157.29-17.05L157.29-17.05 157.29 0 152.54 0 152.54-16.75Q152.54-19.4 151.06-21.15 149.59-22.9 146.79-22.9L146.79-22.9Q144.54-22.9 143.14-21.78 141.74-20.65 141.06-18.82 140.39-17 140.39-14.95L140.39-14.95 140.39 0ZM176.83 0.5L176.83 0.5Q173.58 0.5 171.13-0.68 168.68-1.85 167.06-3.83 165.43-5.8 164.61-8.25 163.78-10.7 163.78-13.25L163.78-13.25Q163.78-15.8 164.58-18.23 165.38-20.65 167.01-22.65 168.63-24.65 171.08-25.83 173.53-27 176.83-27L176.83-27Q180.03-27 182.13-26.05 184.23-25.1 185.51-23.68 186.78-22.25 187.41-20.83 188.03-19.4 188.23-18.45 188.43-17.5 188.43-17.5L188.43-17.5 183.83-17.5Q183.83-17.5 183.58-18.32 183.33-19.15 182.63-20.2 181.93-21.25 180.53-22.08 179.13-22.9 176.83-22.9L176.83-22.9Q174.08-22.9 172.21-21.53 170.33-20.15 169.41-17.95 168.48-15.75 168.48-13.25L168.48-13.25Q168.48-10.75 169.41-8.55 170.33-6.35 172.21-4.98 174.08-3.6 176.83-3.6L176.83-3.6Q179.13-3.6 180.53-4.42 181.93-5.25 182.63-6.3 183.33-7.35 183.58-8.18 183.83-9 183.83-9L183.83-9 188.43-9Q188.43-9 188.23-8.05 188.03-7.1 187.41-5.68 186.78-4.25 185.51-2.83 184.23-1.4 182.13-0.45 180.03 0.5 176.83 0.5ZM206.98 0.5L206.98 0.5Q203.73 0.5 201.36-0.68 198.98-1.85 197.46-3.85 195.93-5.85 195.18-8.28 194.43-10.7 194.43-13.25L194.43-13.25Q194.43-15.75 195.16-18.2 195.88-20.65 197.41-22.65 198.93-24.65 201.26-25.83 203.58-27 206.78-27L206.78-27Q210.18-27 212.78-25.45 215.38-23.9 216.88-20.85 218.38-17.8 218.38-13.2L218.38-13.2 218.38-11.8 199.23-11.8Q199.38-9.55 200.31-7.68 201.23-5.8 202.93-4.67 204.63-3.55 206.98-3.55L206.98-3.55Q209.03-3.55 210.31-4.23 211.58-4.9 212.33-5.8 213.08-6.7 213.36-7.38 213.63-8.05 213.63-8.05L213.63-8.05 218.08-8.05Q218.08-8.05 217.83-7.18 217.58-6.3 216.93-5.05 216.28-3.8 215.03-2.53 213.78-1.25 211.83-0.38 209.88 0.5 206.98 0.5ZM199.28-15.5L199.28-15.5 213.73-15.5Q213.63-18.1 212.63-19.73 211.63-21.35 210.08-22.15 208.53-22.95 206.78-22.95L206.78-22.95Q203.63-22.95 201.63-20.93 199.63-18.9 199.28-15.5ZM229.63 0L224.88 0 224.88-26.5 229.63-26.5 229.63-23.2 229.83-23.2Q230.68-24.7 232.33-25.85 233.98-27 236.98-27L236.98-27Q237.83-27 238.53-26.93 239.23-26.85 239.23-26.85L239.23-26.85 239.23-22.3Q239.23-22.3 238.45-22.38 237.68-22.45 236.83-22.45L236.83-22.45Q233.38-22.45 231.5-20.48 229.63-18.5 229.63-14.05L229.63-14.05 229.63 0Z" opacity="1" transform="matrix(1,0,0,1,0,0)" fill="black" class="wordmark-text-0" id="SvgjsPath2083"></path></svg></g></svg></g></svg></g></svg></g><g><svg viewBox="0 0 156.28458921999746 156.28458921999746" height="156.28458921999746" width="156.28458921999746"><g><svg></svg></g><g id="SvgjsG2082"><svg viewBox="0 0 156.28458921999746 156.28458921999746" height="156.28458921999746" width="156.28458921999746"><g><path d="M0 78.142c0-43.157 34.986-78.142 78.142-78.142 43.157 0 78.142 34.986 78.143 78.142 0 43.157-34.986 78.142-78.143 78.143-43.157 0-78.142-34.986-78.142-78.143zM78.142 150.384c39.898 0 72.242-32.344 72.242-72.242 0-39.898-32.344-72.242-72.242-72.241-39.898 0-72.242 32.344-72.241 72.241 0 39.898 32.344 72.242 72.241 72.242z" fill="black" stroke="transparent"></path></g><g transform="matrix(1,0,0,1,35.70167405145553,35.70165973351964)"><svg viewBox="0 0 84.8812411170864 84.88126975295818" height="84.88126975295818" width="84.8812411170864"><g><svg xmlns="http://www.w3.org/2000/svg" viewBox="16.000179277640626 15.99999434982138 479.9998437578025 480.0000056924514" x="0" y="0" height="84.88126975295818" width="84.8812411170864" class="icon-dxe-0" data-fill-palette-color="accent" id="SvgjsSvg2081"><g fill="black"><path d="M478.188 287.844L476.425 286.67A31.8 31.8 0 0 0 480 272V224A16.02 16.02 0 0 0 464 208H448A32.036 32.036 0 0 0 416 240V272A31.8 31.8 0 0 0 419.575 286.669L417.812 287.844A40 40 0 0 0 408 297.142V256A16.02 16.02 0 0 0 392 240H376A32.036 32.036 0 0 0 344 272V297.142A40 40 0 0 0 334.188 287.844L332.425 286.67A31.8 31.8 0 0 0 336 272V224A16.02 16.02 0 0 0 320 208H304A32.036 32.036 0 0 0 272 240V272A31.8 31.8 0 0 0 275.575 286.669L273.812 287.844A39.92 39.92 0 0 0 256 321.126V352A8 8 0 0 0 264 360H328V384A8 8 0 0 0 336 392H416A8 8 0 0 0 424 384V360H488A8 8 0 0 0 496 352V321.126A39.92 39.92 0 0 0 478.188 287.844M448 288A16.02 16.02 0 0 1 432 272V256H464V272A16.02 16.02 0 0 1 448 288M448 224H464V240H432A16.02 16.02 0 0 1 448 224M426.688 301.157L430.38 298.694A31.8 31.8 0 0 0 440 302.987V344H422.936A39.85 39.85 0 0 0 416 329.142V321.126A23.95 23.95 0 0 1 426.688 301.156M360 304V288H392V304A16 16 0 0 1 360 304M376 256H392V272H360A16.02 16.02 0 0 1 376 256M336 321.126V329.142A39.85 39.85 0 0 0 329.064 344H312V302.987A31.9 31.9 0 0 0 321.619 298.694L325.312 301.157A23.95 23.95 0 0 1 336 321.126M288 272V256H320V272A16 16 0 0 1 288 272M304 224H320V240H288A16.02 16.02 0 0 1 304 224M272 321.126A23.95 23.95 0 0 1 282.688 301.156L286.38 298.695A31.8 31.8 0 0 0 296 302.987V344H272ZM408 376H344V353.126A23.95 23.95 0 0 1 354.688 333.156L358.38 330.695A31.91 31.91 0 0 0 393.619 330.694L397.312 333.157A23.95 23.95 0 0 1 408 353.126ZM480 344H456V302.987A31.9 31.9 0 0 0 465.619 298.694L469.312 301.157A23.95 23.95 0 0 1 480 321.126Z" fill="black"></path><path d="M152 152H160A24.03 24.03 0 0 0 184 128V120H168V128A8.01 8.01 0 0 1 160 136H152Z" fill="black"></path><circle cx="144" cy="104" r="8.0" fill="black"></circle><circle cx="192" cy="104.29773" r="8.0" fill="black"></circle><path d="M57.49 436.65A8 8 0 0 0 64 440V488A8 8 0 0 0 72 496H304A8 8 0 0 0 311.892 489.315L323.892 417.315 308.108 414.685 297.223 480H272V392H271.993A7.98 7.98 0 0 0 269.657 386.343L261.657 378.343A8 8 0 0 0 252.422 376.845L222.112 392H219.312L221.657 389.657A8 8 0 0 0 224 384V368A8 8 0 0 0 216 360H192A8 8 0 0 0 188.422 360.845L159.069 375.52 103.03 361.511 95.892 318.685 80.108 321.315 88.108 369.315A8 8 0 0 0 94.06 375.761L152 390.246V424H68.117L32.462 374.083 53.229 256.4A23.9 23.9 0 0 1 65.208 239.59L115.945 211.404 160.572 322.97A8 8 0 0 0 175.428 322.971L220.055 211.404 252.115 229.215 259.885 215.23 221.58 193.949 209.853 176.357A63.86 63.86 0 0 0 232 128V48A32.036 32.036 0 0 0 200 16H168A31.86 31.86 0 0 0 146.868 24H128A24.027 24.027 0 0 0 104 48V128A63.86 63.86 0 0 0 126.147 176.357L114.42 193.949 57.438 225.605A39.83 39.83 0 0 0 37.474 253.62L16.122 374.61A8 8 0 0 0 17.49 380.65ZM193.89 376H208V380.686L194.343 394.343A8 8 0 0 0 200 408H224A8 8 0 0 0 227.578 407.155L251 395.445 228.155 424H168V388.944ZM160 440H232A8 8 0 0 0 238.247 436.998L256 414.806V480H80V440ZM136.587 189.54L157.28 215.407 141.208 231.48 128.99 200.936ZM207.01 200.937L194.792 231.479 178.72 215.406 199.413 189.541ZM168 203.194L158.475 191.288A64 64 0 0 0 177.525 191.288ZM168 298.459L147.673 247.641 168 227.314 188.327 247.641ZM168 32H200A16.02 16.02 0 0 1 216 48V64H168A16 16 0 0 1 168 32M120 48A8.01 8.01 0 0 1 128 40H137.013A31.97 31.97 0 0 0 137.682 58.215L120 67.055ZM120 128V84.944L146.51 71.69A31.88 31.88 0 0 0 168 80H216V128A48 48 0 0 1 120 128" fill="black"></path></g></svg></g></svg></g></svg></g></svg></g></svg></g><defs><mask></mask></defs></svg><rect width="395.52" height="106.08188269429053" fill="black" stroke="none" visibility="hidden"></rect></g></mask></svg><rect width="395.52" height="106.08188269429053" fill="black" stroke="none" visibility="hidden"></rect></g></mask><linearGradient x1="0" x2="1" y1="0.578" y2="0.595" id="6641ecae-7419-4466-ab88-f3fe0001c1bb"><stop stop-color="#6ee2f5" offset="0"></stop><stop stop-color="#6454f0" offset="1"></stop></linearGradient><rect width="395.52" height="106.08216152098906" fill="url(#6641ecae-7419-4466-ab88-f3fe0001c1bb)" mask="url(#28137051-173a-4115-b3c0-936d337ad4cd)" data-fill-palette-color="accent"></rect><mask id="c2226f1e-647d-41e4-a941-424946454da6"><g id="SvgjsG2113"><svg viewBox="0 0 395.52 106.08188269429053" height="106.08188269429053" width="395.52"><g><svg viewBox="0 0 582.697810015586 156.28458921999746" height="106.08188269429053" width="395.52"><g transform="matrix(1,0,0,1,187.177810015586,45.42696056970181)"><svg viewBox="0 0 395.52 65.43066808059383" height="65.43066808059383" width="395.52"><g id="SvgjsG2112"><svg viewBox="0 0 395.52 65.43066808059383" height="65.43066808059383" width="395.52" id="SvgjsSvg2111"><g><svg viewBox="0 0 395.52 65.43066808059383" height="65.43066808059383" width="395.52"><g transform="matrix(1,0,0,1,0,0)"><svg width="395.52" viewBox="3.5 -38.5 235.73 39" height="65.43066808059383" data-palette-color="url(#4d18ee5c-63ce-4829-8956-a00d91284f6b)"></svg></g></svg></g></svg></g></svg></g><g><svg viewBox="0 0 156.28458921999746 156.28458921999746" height="156.28458921999746" width="156.28458921999746"><g><svg></svg></g><g id="SvgjsG2110"><svg viewBox="0 0 156.28458921999746 156.28458921999746" height="156.28458921999746" width="156.28458921999746"><g><path d="M0 78.142c0-43.157 34.986-78.142 78.142-78.142 43.157 0 78.142 34.986 78.143 78.142 0 43.157-34.986 78.142-78.143 78.143-43.157 0-78.142-34.986-78.142-78.143zM78.142 150.384c39.898 0 72.242-32.344 72.242-72.242 0-39.898-32.344-72.242-72.242-72.241-39.898 0-72.242 32.344-72.241 72.241 0 39.898 32.344 72.242 72.241 72.242z" fill="white" stroke="transparent"></path></g><g transform="matrix(1,0,0,1,35.70167405145553,35.70165973351964)"><svg viewBox="0 0 84.8812411170864 84.88126975295818" height="84.88126975295818" width="84.8812411170864"><g><svg xmlns="http://www.w3.org/2000/svg" viewBox="16.000179277640626 15.99999434982138 479.9998437578025 480.0000056924514" x="0" y="0" height="84.88126975295818" width="84.8812411170864" class="icon-dxe-0" data-fill-palette-color="accent" id="SvgjsSvg2109"></svg></g></svg></g></svg></g></svg></g></svg></g><defs><mask></mask></defs><mask><g id="SvgjsG2108"><svg viewBox="0 0 395.52 106.08188269429053" height="106.08188269429053" width="395.52"><g><svg viewBox="0 0 582.697810015586 156.28458921999746" height="106.08188269429053" width="395.52"><g transform="matrix(1,0,0,1,187.177810015586,45.42696056970181)"><svg viewBox="0 0 395.52 65.43066808059383" height="65.43066808059383" width="395.52"><g id="SvgjsG2107"><svg viewBox="0 0 395.52 65.43066808059383" height="65.43066808059383" width="395.52" id="SvgjsSvg2106"><g><svg viewBox="0 0 395.52 65.43066808059383" height="65.43066808059383" width="395.52"><g transform="matrix(1,0,0,1,0,0)"><svg width="395.52" viewBox="3.5 -38.5 235.73 39" height="65.43066808059383" data-palette-color="url(#4d18ee5c-63ce-4829-8956-a00d91284f6b)"><path d="M6.6-31.55L6.6-31.55Q5.25-31.55 4.38-32.45 3.5-33.35 3.5-34.6L3.5-34.6Q3.5-35.9 4.38-36.8 5.25-37.7 6.6-37.7L6.6-37.7Q7.9-37.7 8.8-36.8 9.7-35.9 9.7-34.6L9.7-34.6Q9.7-33.35 8.8-32.45 7.9-31.55 6.6-31.55ZM9 0L4.25 0 4.25-26.5 9-26.5 9 0ZM21.45 0L16.7 0 16.7-26.5 21.45-26.5 21.45-22.65 21.75-22.65Q22.1-23.25 22.92-24.3 23.75-25.35 25.3-26.18 26.85-27 29.2-27L29.2-27Q32.1-27 34.15-25.68 36.2-24.35 37.27-22.1 38.35-19.85 38.35-17.05L38.35-17.05 38.35 0 33.6 0 33.6-16.75Q33.6-19.4 32.12-21.15 30.65-22.9 27.85-22.9L27.85-22.9Q25.6-22.9 24.2-21.78 22.8-20.65 22.12-18.82 21.45-17 21.45-14.95L21.45-14.95 21.45 0ZM53.2 0L48.45 0 48.45-22.6 44.1-22.6 44.1-26.5 48.45-26.5 48.45-29.75Q48.45-31.85 49.2-33.88 49.95-35.9 51.7-37.2 53.45-38.5 56.45-38.5L56.45-38.5Q57.9-38.5 58.77-38.27 59.65-38.05 59.65-38.05L59.65-38.05 59.65-34.3Q59.65-34.3 58.87-34.48 58.1-34.65 57.1-34.65L57.1-34.65Q54.8-34.65 54-33.25 53.2-31.85 53.2-29.75L53.2-29.75 53.2-26.5 59.35-26.5 59.35-22.6 53.2-22.6 53.2 0ZM69.89 0L65.14 0 65.19-38 69.89-38 69.89 0ZM86.04 0.5L86.04 0.5Q82.09 0.5 79.74-1.95 77.39-4.4 77.39-8.75L77.39-8.75 77.39-26.5 82.14-26.5 82.14-9Q82.14-6.4 83.57-5 84.99-3.6 87.34-3.6L87.34-3.6Q89.74-3.6 91.19-4.85 92.64-6.1 93.29-8.05 93.94-10 93.94-12.05L93.94-12.05 93.94-26.5 98.69-26.5 98.69 0 93.94 0 93.94-3.8 93.64-3.8Q93.34-3.2 92.49-2.18 91.64-1.15 90.09-0.33 88.54 0.5 86.04 0.5ZM117.74 0.5L117.74 0.5Q114.49 0.5 112.11-0.68 109.74-1.85 108.21-3.85 106.69-5.85 105.94-8.28 105.19-10.7 105.19-13.25L105.19-13.25Q105.19-15.75 105.91-18.2 106.64-20.65 108.16-22.65 109.69-24.65 112.01-25.83 114.34-27 117.54-27L117.54-27Q120.94-27 123.54-25.45 126.14-23.9 127.64-20.85 129.14-17.8 129.14-13.2L129.14-13.2 129.14-11.8 109.99-11.8Q110.14-9.55 111.06-7.68 111.99-5.8 113.69-4.67 115.39-3.55 117.74-3.55L117.74-3.55Q119.79-3.55 121.06-4.23 122.34-4.9 123.09-5.8 123.84-6.7 124.11-7.38 124.39-8.05 124.39-8.05L124.39-8.05 128.84-8.05Q128.84-8.05 128.59-7.18 128.34-6.3 127.69-5.05 127.04-3.8 125.79-2.53 124.54-1.25 122.59-0.38 120.64 0.5 117.74 0.5ZM110.04-15.5L110.04-15.5 124.49-15.5Q124.39-18.1 123.39-19.73 122.39-21.35 120.84-22.15 119.29-22.95 117.54-22.95L117.54-22.95Q114.39-22.95 112.39-20.93 110.39-18.9 110.04-15.5ZM140.39 0L135.64 0 135.64-26.5 140.39-26.5 140.39-22.65 140.69-22.65Q141.04-23.25 141.86-24.3 142.69-25.35 144.24-26.18 145.79-27 148.14-27L148.14-27Q151.04-27 153.09-25.68 155.14-24.35 156.21-22.1 157.29-19.85 157.29-17.05L157.29-17.05 157.29 0 152.54 0 152.54-16.75Q152.54-19.4 151.06-21.15 149.59-22.9 146.79-22.9L146.79-22.9Q144.54-22.9 143.14-21.78 141.74-20.65 141.06-18.82 140.39-17 140.39-14.95L140.39-14.95 140.39 0ZM176.83 0.5L176.83 0.5Q173.58 0.5 171.13-0.68 168.68-1.85 167.06-3.83 165.43-5.8 164.61-8.25 163.78-10.7 163.78-13.25L163.78-13.25Q163.78-15.8 164.58-18.23 165.38-20.65 167.01-22.65 168.63-24.65 171.08-25.83 173.53-27 176.83-27L176.83-27Q180.03-27 182.13-26.05 184.23-25.1 185.51-23.68 186.78-22.25 187.41-20.83 188.03-19.4 188.23-18.45 188.43-17.5 188.43-17.5L188.43-17.5 183.83-17.5Q183.83-17.5 183.58-18.32 183.33-19.15 182.63-20.2 181.93-21.25 180.53-22.08 179.13-22.9 176.83-22.9L176.83-22.9Q174.08-22.9 172.21-21.53 170.33-20.15 169.41-17.95 168.48-15.75 168.48-13.25L168.48-13.25Q168.48-10.75 169.41-8.55 170.33-6.35 172.21-4.98 174.08-3.6 176.83-3.6L176.83-3.6Q179.13-3.6 180.53-4.42 181.93-5.25 182.63-6.3 183.33-7.35 183.58-8.18 183.83-9 183.83-9L183.83-9 188.43-9Q188.43-9 188.23-8.05 188.03-7.1 187.41-5.68 186.78-4.25 185.51-2.83 184.23-1.4 182.13-0.45 180.03 0.5 176.83 0.5ZM206.98 0.5L206.98 0.5Q203.73 0.5 201.36-0.68 198.98-1.85 197.46-3.85 195.93-5.85 195.18-8.28 194.43-10.7 194.43-13.25L194.43-13.25Q194.43-15.75 195.16-18.2 195.88-20.65 197.41-22.65 198.93-24.65 201.26-25.83 203.58-27 206.78-27L206.78-27Q210.18-27 212.78-25.45 215.38-23.9 216.88-20.85 218.38-17.8 218.38-13.2L218.38-13.2 218.38-11.8 199.23-11.8Q199.38-9.55 200.31-7.68 201.23-5.8 202.93-4.67 204.63-3.55 206.98-3.55L206.98-3.55Q209.03-3.55 210.31-4.23 211.58-4.9 212.33-5.8 213.08-6.7 213.36-7.38 213.63-8.05 213.63-8.05L213.63-8.05 218.08-8.05Q218.08-8.05 217.83-7.18 217.58-6.3 216.93-5.05 216.28-3.8 215.03-2.53 213.78-1.25 211.83-0.38 209.88 0.5 206.98 0.5ZM199.28-15.5L199.28-15.5 213.73-15.5Q213.63-18.1 212.63-19.73 211.63-21.35 210.08-22.15 208.53-22.95 206.78-22.95L206.78-22.95Q203.63-22.95 201.63-20.93 199.63-18.9 199.28-15.5ZM229.63 0L224.88 0 224.88-26.5 229.63-26.5 229.63-23.2 229.83-23.2Q230.68-24.7 232.33-25.85 233.98-27 236.98-27L236.98-27Q237.83-27 238.53-26.93 239.23-26.85 239.23-26.85L239.23-26.85 239.23-22.3Q239.23-22.3 238.45-22.38 237.68-22.45 236.83-22.45L236.83-22.45Q233.38-22.45 231.5-20.48 229.63-18.5 229.63-14.05L229.63-14.05 229.63 0Z" opacity="1" transform="matrix(1,0,0,1,0,0)" fill="black" class="wordmark-text-0" id="SvgjsPath2105"></path></svg></g></svg></g></svg></g></svg></g><g><svg viewBox="0 0 156.28458921999746 156.28458921999746" height="156.28458921999746" width="156.28458921999746"><g><svg></svg></g><g id="SvgjsG2104"><svg viewBox="0 0 156.28458921999746 156.28458921999746" height="156.28458921999746" width="156.28458921999746"><g><path d="M0 78.142c0-43.157 34.986-78.142 78.142-78.142 43.157 0 78.142 34.986 78.143 78.142 0 43.157-34.986 78.142-78.143 78.143-43.157 0-78.142-34.986-78.142-78.143zM78.142 150.384c39.898 0 72.242-32.344 72.242-72.242 0-39.898-32.344-72.242-72.242-72.241-39.898 0-72.242 32.344-72.241 72.241 0 39.898 32.344 72.242 72.241 72.242z" fill="black" stroke="transparent"></path></g><g transform="matrix(1,0,0,1,35.70167405145553,35.70165973351964)"><svg viewBox="0 0 84.8812411170864 84.88126975295818" height="84.88126975295818" width="84.8812411170864"><g><svg xmlns="http://www.w3.org/2000/svg" viewBox="16.000179277640626 15.99999434982138 479.9998437578025 480.0000056924514" x="0" y="0" height="84.88126975295818" width="84.8812411170864" class="icon-dxe-0" data-fill-palette-color="accent" id="SvgjsSvg2103"><g fill="black"><path d="M478.188 287.844L476.425 286.67A31.8 31.8 0 0 0 480 272V224A16.02 16.02 0 0 0 464 208H448A32.036 32.036 0 0 0 416 240V272A31.8 31.8 0 0 0 419.575 286.669L417.812 287.844A40 40 0 0 0 408 297.142V256A16.02 16.02 0 0 0 392 240H376A32.036 32.036 0 0 0 344 272V297.142A40 40 0 0 0 334.188 287.844L332.425 286.67A31.8 31.8 0 0 0 336 272V224A16.02 16.02 0 0 0 320 208H304A32.036 32.036 0 0 0 272 240V272A31.8 31.8 0 0 0 275.575 286.669L273.812 287.844A39.92 39.92 0 0 0 256 321.126V352A8 8 0 0 0 264 360H328V384A8 8 0 0 0 336 392H416A8 8 0 0 0 424 384V360H488A8 8 0 0 0 496 352V321.126A39.92 39.92 0 0 0 478.188 287.844M448 288A16.02 16.02 0 0 1 432 272V256H464V272A16.02 16.02 0 0 1 448 288M448 224H464V240H432A16.02 16.02 0 0 1 448 224M426.688 301.157L430.38 298.694A31.8 31.8 0 0 0 440 302.987V344H422.936A39.85 39.85 0 0 0 416 329.142V321.126A23.95 23.95 0 0 1 426.688 301.156M360 304V288H392V304A16 16 0 0 1 360 304M376 256H392V272H360A16.02 16.02 0 0 1 376 256M336 321.126V329.142A39.85 39.85 0 0 0 329.064 344H312V302.987A31.9 31.9 0 0 0 321.619 298.694L325.312 301.157A23.95 23.95 0 0 1 336 321.126M288 272V256H320V272A16 16 0 0 1 288 272M304 224H320V240H288A16.02 16.02 0 0 1 304 224M272 321.126A23.95 23.95 0 0 1 282.688 301.156L286.38 298.695A31.8 31.8 0 0 0 296 302.987V344H272ZM408 376H344V353.126A23.95 23.95 0 0 1 354.688 333.156L358.38 330.695A31.91 31.91 0 0 0 393.619 330.694L397.312 333.157A23.95 23.95 0 0 1 408 353.126ZM480 344H456V302.987A31.9 31.9 0 0 0 465.619 298.694L469.312 301.157A23.95 23.95 0 0 1 480 321.126Z" fill="black"></path><path d="M152 152H160A24.03 24.03 0 0 0 184 128V120H168V128A8.01 8.01 0 0 1 160 136H152Z" fill="black"></path><circle cx="144" cy="104" r="8.0" fill="black"></circle><circle cx="192" cy="104.29773" r="8.0" fill="black"></circle><path d="M57.49 436.65A8 8 0 0 0 64 440V488A8 8 0 0 0 72 496H304A8 8 0 0 0 311.892 489.315L323.892 417.315 308.108 414.685 297.223 480H272V392H271.993A7.98 7.98 0 0 0 269.657 386.343L261.657 378.343A8 8 0 0 0 252.422 376.845L222.112 392H219.312L221.657 389.657A8 8 0 0 0 224 384V368A8 8 0 0 0 216 360H192A8 8 0 0 0 188.422 360.845L159.069 375.52 103.03 361.511 95.892 318.685 80.108 321.315 88.108 369.315A8 8 0 0 0 94.06 375.761L152 390.246V424H68.117L32.462 374.083 53.229 256.4A23.9 23.9 0 0 1 65.208 239.59L115.945 211.404 160.572 322.97A8 8 0 0 0 175.428 322.971L220.055 211.404 252.115 229.215 259.885 215.23 221.58 193.949 209.853 176.357A63.86 63.86 0 0 0 232 128V48A32.036 32.036 0 0 0 200 16H168A31.86 31.86 0 0 0 146.868 24H128A24.027 24.027 0 0 0 104 48V128A63.86 63.86 0 0 0 126.147 176.357L114.42 193.949 57.438 225.605A39.83 39.83 0 0 0 37.474 253.62L16.122 374.61A8 8 0 0 0 17.49 380.65ZM193.89 376H208V380.686L194.343 394.343A8 8 0 0 0 200 408H224A8 8 0 0 0 227.578 407.155L251 395.445 228.155 424H168V388.944ZM160 440H232A8 8 0 0 0 238.247 436.998L256 414.806V480H80V440ZM136.587 189.54L157.28 215.407 141.208 231.48 128.99 200.936ZM207.01 200.937L194.792 231.479 178.72 215.406 199.413 189.541ZM168 203.194L158.475 191.288A64 64 0 0 0 177.525 191.288ZM168 298.459L147.673 247.641 168 227.314 188.327 247.641ZM168 32H200A16.02 16.02 0 0 1 216 48V64H168A16 16 0 0 1 168 32M120 48A8.01 8.01 0 0 1 128 40H137.013A31.97 31.97 0 0 0 137.682 58.215L120 67.055ZM120 128V84.944L146.51 71.69A31.88 31.88 0 0 0 168 80H216V128A48 48 0 0 1 120 128" fill="black"></path></g></svg></g></svg></g></svg></g></svg></g></svg></g><defs><mask></mask></defs></svg><rect width="395.52" height="106.08188269429053" fill="black" stroke="none" visibility="hidden"></rect></g></mask><mask><g id="SvgjsG2102"><svg viewBox="0 0 395.52 106.08188269429053" height="106.08188269429053" width="395.52"><g><svg viewBox="0 0 582.697810015586 156.28458921999746" height="106.08188269429053" width="395.52"><g transform="matrix(1,0,0,1,187.177810015586,45.42696056970181)"><svg viewBox="0 0 395.52 65.43066808059383" height="65.43066808059383" width="395.52"><g id="SvgjsG2101"><svg viewBox="0 0 395.52 65.43066808059383" height="65.43066808059383" width="395.52" id="SvgjsSvg2100"><g><svg viewBox="0 0 395.52 65.43066808059383" height="65.43066808059383" width="395.52"><g transform="matrix(1,0,0,1,0,0)"><svg width="395.52" viewBox="3.5 -38.5 235.73 39" height="65.43066808059383" data-palette-color="url(#4d18ee5c-63ce-4829-8956-a00d91284f6b)"></svg></g></svg></g></svg></g></svg></g><g><svg viewBox="0 0 156.28458921999746 156.28458921999746" height="156.28458921999746" width="156.28458921999746"><g><svg></svg></g><g id="SvgjsG2099"><svg viewBox="0 0 156.28458921999746 156.28458921999746" height="156.28458921999746" width="156.28458921999746"><g><path d="M0 78.142c0-43.157 34.986-78.142 78.142-78.142 43.157 0 78.142 34.986 78.143 78.142 0 43.157-34.986 78.142-78.143 78.143-43.157 0-78.142-34.986-78.142-78.143zM78.142 150.384c39.898 0 72.242-32.344 72.242-72.242 0-39.898-32.344-72.242-72.242-72.241-39.898 0-72.242 32.344-72.241 72.241 0 39.898 32.344 72.242 72.241 72.242z" fill="black" stroke="transparent"></path></g><g transform="matrix(1,0,0,1,35.70167405145553,35.70165973351964)"><svg viewBox="0 0 84.8812411170864 84.88126975295818" height="84.88126975295818" width="84.8812411170864"><g><svg xmlns="http://www.w3.org/2000/svg" viewBox="16.000179277640626 15.99999434982138 479.9998437578025 480.0000056924514" x="0" y="0" height="84.88126975295818" width="84.8812411170864" class="icon-dxe-0" data-fill-palette-color="accent" id="SvgjsSvg2098"><g fill="black"><path d="M478.188 287.844L476.425 286.67A31.8 31.8 0 0 0 480 272V224A16.02 16.02 0 0 0 464 208H448A32.036 32.036 0 0 0 416 240V272A31.8 31.8 0 0 0 419.575 286.669L417.812 287.844A40 40 0 0 0 408 297.142V256A16.02 16.02 0 0 0 392 240H376A32.036 32.036 0 0 0 344 272V297.142A40 40 0 0 0 334.188 287.844L332.425 286.67A31.8 31.8 0 0 0 336 272V224A16.02 16.02 0 0 0 320 208H304A32.036 32.036 0 0 0 272 240V272A31.8 31.8 0 0 0 275.575 286.669L273.812 287.844A39.92 39.92 0 0 0 256 321.126V352A8 8 0 0 0 264 360H328V384A8 8 0 0 0 336 392H416A8 8 0 0 0 424 384V360H488A8 8 0 0 0 496 352V321.126A39.92 39.92 0 0 0 478.188 287.844M448 288A16.02 16.02 0 0 1 432 272V256H464V272A16.02 16.02 0 0 1 448 288M448 224H464V240H432A16.02 16.02 0 0 1 448 224M426.688 301.157L430.38 298.694A31.8 31.8 0 0 0 440 302.987V344H422.936A39.85 39.85 0 0 0 416 329.142V321.126A23.95 23.95 0 0 1 426.688 301.156M360 304V288H392V304A16 16 0 0 1 360 304M376 256H392V272H360A16.02 16.02 0 0 1 376 256M336 321.126V329.142A39.85 39.85 0 0 0 329.064 344H312V302.987A31.9 31.9 0 0 0 321.619 298.694L325.312 301.157A23.95 23.95 0 0 1 336 321.126M288 272V256H320V272A16 16 0 0 1 288 272M304 224H320V240H288A16.02 16.02 0 0 1 304 224M272 321.126A23.95 23.95 0 0 1 282.688 301.156L286.38 298.695A31.8 31.8 0 0 0 296 302.987V344H272ZM408 376H344V353.126A23.95 23.95 0 0 1 354.688 333.156L358.38 330.695A31.91 31.91 0 0 0 393.619 330.694L397.312 333.157A23.95 23.95 0 0 1 408 353.126ZM480 344H456V302.987A31.9 31.9 0 0 0 465.619 298.694L469.312 301.157A23.95 23.95 0 0 1 480 321.126Z" fill="black"></path><path d="M152 152H160A24.03 24.03 0 0 0 184 128V120H168V128A8.01 8.01 0 0 1 160 136H152Z" fill="black"></path><circle cx="144" cy="104" r="8.0" fill="black"></circle><circle cx="192" cy="104.29773" r="8.0" fill="black"></circle><path d="M57.49 436.65A8 8 0 0 0 64 440V488A8 8 0 0 0 72 496H304A8 8 0 0 0 311.892 489.315L323.892 417.315 308.108 414.685 297.223 480H272V392H271.993A7.98 7.98 0 0 0 269.657 386.343L261.657 378.343A8 8 0 0 0 252.422 376.845L222.112 392H219.312L221.657 389.657A8 8 0 0 0 224 384V368A8 8 0 0 0 216 360H192A8 8 0 0 0 188.422 360.845L159.069 375.52 103.03 361.511 95.892 318.685 80.108 321.315 88.108 369.315A8 8 0 0 0 94.06 375.761L152 390.246V424H68.117L32.462 374.083 53.229 256.4A23.9 23.9 0 0 1 65.208 239.59L115.945 211.404 160.572 322.97A8 8 0 0 0 175.428 322.971L220.055 211.404 252.115 229.215 259.885 215.23 221.58 193.949 209.853 176.357A63.86 63.86 0 0 0 232 128V48A32.036 32.036 0 0 0 200 16H168A31.86 31.86 0 0 0 146.868 24H128A24.027 24.027 0 0 0 104 48V128A63.86 63.86 0 0 0 126.147 176.357L114.42 193.949 57.438 225.605A39.83 39.83 0 0 0 37.474 253.62L16.122 374.61A8 8 0 0 0 17.49 380.65ZM193.89 376H208V380.686L194.343 394.343A8 8 0 0 0 200 408H224A8 8 0 0 0 227.578 407.155L251 395.445 228.155 424H168V388.944ZM160 440H232A8 8 0 0 0 238.247 436.998L256 414.806V480H80V440ZM136.587 189.54L157.28 215.407 141.208 231.48 128.99 200.936ZM207.01 200.937L194.792 231.479 178.72 215.406 199.413 189.541ZM168 203.194L158.475 191.288A64 64 0 0 0 177.525 191.288ZM168 298.459L147.673 247.641 168 227.314 188.327 247.641ZM168 32H200A16.02 16.02 0 0 1 216 48V64H168A16 16 0 0 1 168 32M120 48A8.01 8.01 0 0 1 128 40H137.013A31.97 31.97 0 0 0 137.682 58.215L120 67.055ZM120 128V84.944L146.51 71.69A31.88 31.88 0 0 0 168 80H216V128A48 48 0 0 1 120 128" fill="black"></path></g></svg></g></svg></g></svg></g></svg></g></svg></g><defs><mask></mask></defs><mask><g id="SvgjsG2097"><svg viewBox="0 0 395.52 106.08188269429053" height="106.08188269429053" width="395.52"><g><svg viewBox="0 0 582.697810015586 156.28458921999746" height="106.08188269429053" width="395.52"><g transform="matrix(1,0,0,1,187.177810015586,45.42696056970181)"><svg viewBox="0 0 395.52 65.43066808059383" height="65.43066808059383" width="395.52"><g id="SvgjsG2096"><svg viewBox="0 0 395.52 65.43066808059383" height="65.43066808059383" width="395.52" id="SvgjsSvg2095"><g><svg viewBox="0 0 395.52 65.43066808059383" height="65.43066808059383" width="395.52"><g transform="matrix(1,0,0,1,0,0)"><svg width="395.52" viewBox="3.5 -38.5 235.73 39" height="65.43066808059383" data-palette-color="url(#4d18ee5c-63ce-4829-8956-a00d91284f6b)"><path d="M6.6-31.55L6.6-31.55Q5.25-31.55 4.38-32.45 3.5-33.35 3.5-34.6L3.5-34.6Q3.5-35.9 4.38-36.8 5.25-37.7 6.6-37.7L6.6-37.7Q7.9-37.7 8.8-36.8 9.7-35.9 9.7-34.6L9.7-34.6Q9.7-33.35 8.8-32.45 7.9-31.55 6.6-31.55ZM9 0L4.25 0 4.25-26.5 9-26.5 9 0ZM21.45 0L16.7 0 16.7-26.5 21.45-26.5 21.45-22.65 21.75-22.65Q22.1-23.25 22.92-24.3 23.75-25.35 25.3-26.18 26.85-27 29.2-27L29.2-27Q32.1-27 34.15-25.68 36.2-24.35 37.27-22.1 38.35-19.85 38.35-17.05L38.35-17.05 38.35 0 33.6 0 33.6-16.75Q33.6-19.4 32.12-21.15 30.65-22.9 27.85-22.9L27.85-22.9Q25.6-22.9 24.2-21.78 22.8-20.65 22.12-18.82 21.45-17 21.45-14.95L21.45-14.95 21.45 0ZM53.2 0L48.45 0 48.45-22.6 44.1-22.6 44.1-26.5 48.45-26.5 48.45-29.75Q48.45-31.85 49.2-33.88 49.95-35.9 51.7-37.2 53.45-38.5 56.45-38.5L56.45-38.5Q57.9-38.5 58.77-38.27 59.65-38.05 59.65-38.05L59.65-38.05 59.65-34.3Q59.65-34.3 58.87-34.48 58.1-34.65 57.1-34.65L57.1-34.65Q54.8-34.65 54-33.25 53.2-31.85 53.2-29.75L53.2-29.75 53.2-26.5 59.35-26.5 59.35-22.6 53.2-22.6 53.2 0ZM69.89 0L65.14 0 65.19-38 69.89-38 69.89 0ZM86.04 0.5L86.04 0.5Q82.09 0.5 79.74-1.95 77.39-4.4 77.39-8.75L77.39-8.75 77.39-26.5 82.14-26.5 82.14-9Q82.14-6.4 83.57-5 84.99-3.6 87.34-3.6L87.34-3.6Q89.74-3.6 91.19-4.85 92.64-6.1 93.29-8.05 93.94-10 93.94-12.05L93.94-12.05 93.94-26.5 98.69-26.5 98.69 0 93.94 0 93.94-3.8 93.64-3.8Q93.34-3.2 92.49-2.18 91.64-1.15 90.09-0.33 88.54 0.5 86.04 0.5ZM117.74 0.5L117.74 0.5Q114.49 0.5 112.11-0.68 109.74-1.85 108.21-3.85 106.69-5.85 105.94-8.28 105.19-10.7 105.19-13.25L105.19-13.25Q105.19-15.75 105.91-18.2 106.64-20.65 108.16-22.65 109.69-24.65 112.01-25.83 114.34-27 117.54-27L117.54-27Q120.94-27 123.54-25.45 126.14-23.9 127.64-20.85 129.14-17.8 129.14-13.2L129.14-13.2 129.14-11.8 109.99-11.8Q110.14-9.55 111.06-7.68 111.99-5.8 113.69-4.67 115.39-3.55 117.74-3.55L117.74-3.55Q119.79-3.55 121.06-4.23 122.34-4.9 123.09-5.8 123.84-6.7 124.11-7.38 124.39-8.05 124.39-8.05L124.39-8.05 128.84-8.05Q128.84-8.05 128.59-7.18 128.34-6.3 127.69-5.05 127.04-3.8 125.79-2.53 124.54-1.25 122.59-0.38 120.64 0.5 117.74 0.5ZM110.04-15.5L110.04-15.5 124.49-15.5Q124.39-18.1 123.39-19.73 122.39-21.35 120.84-22.15 119.29-22.95 117.54-22.95L117.54-22.95Q114.39-22.95 112.39-20.93 110.39-18.9 110.04-15.5ZM140.39 0L135.64 0 135.64-26.5 140.39-26.5 140.39-22.65 140.69-22.65Q141.04-23.25 141.86-24.3 142.69-25.35 144.24-26.18 145.79-27 148.14-27L148.14-27Q151.04-27 153.09-25.68 155.14-24.35 156.21-22.1 157.29-19.85 157.29-17.05L157.29-17.05 157.29 0 152.54 0 152.54-16.75Q152.54-19.4 151.06-21.15 149.59-22.9 146.79-22.9L146.79-22.9Q144.54-22.9 143.14-21.78 141.74-20.65 141.06-18.82 140.39-17 140.39-14.95L140.39-14.95 140.39 0ZM176.83 0.5L176.83 0.5Q173.58 0.5 171.13-0.68 168.68-1.85 167.06-3.83 165.43-5.8 164.61-8.25 163.78-10.7 163.78-13.25L163.78-13.25Q163.78-15.8 164.58-18.23 165.38-20.65 167.01-22.65 168.63-24.65 171.08-25.83 173.53-27 176.83-27L176.83-27Q180.03-27 182.13-26.05 184.23-25.1 185.51-23.68 186.78-22.25 187.41-20.83 188.03-19.4 188.23-18.45 188.43-17.5 188.43-17.5L188.43-17.5 183.83-17.5Q183.83-17.5 183.58-18.32 183.33-19.15 182.63-20.2 181.93-21.25 180.53-22.08 179.13-22.9 176.83-22.9L176.83-22.9Q174.08-22.9 172.21-21.53 170.33-20.15 169.41-17.95 168.48-15.75 168.48-13.25L168.48-13.25Q168.48-10.75 169.41-8.55 170.33-6.35 172.21-4.98 174.08-3.6 176.83-3.6L176.83-3.6Q179.13-3.6 180.53-4.42 181.93-5.25 182.63-6.3 183.33-7.35 183.58-8.18 183.83-9 183.83-9L183.83-9 188.43-9Q188.43-9 188.23-8.05 188.03-7.1 187.41-5.68 186.78-4.25 185.51-2.83 184.23-1.4 182.13-0.45 180.03 0.5 176.83 0.5ZM206.98 0.5L206.98 0.5Q203.73 0.5 201.36-0.68 198.98-1.85 197.46-3.85 195.93-5.85 195.18-8.28 194.43-10.7 194.43-13.25L194.43-13.25Q194.43-15.75 195.16-18.2 195.88-20.65 197.41-22.65 198.93-24.65 201.26-25.83 203.58-27 206.78-27L206.78-27Q210.18-27 212.78-25.45 215.38-23.9 216.88-20.85 218.38-17.8 218.38-13.2L218.38-13.2 218.38-11.8 199.23-11.8Q199.38-9.55 200.31-7.68 201.23-5.8 202.93-4.67 204.63-3.55 206.98-3.55L206.98-3.55Q209.03-3.55 210.31-4.23 211.58-4.9 212.33-5.8 213.08-6.7 213.36-7.38 213.63-8.05 213.63-8.05L213.63-8.05 218.08-8.05Q218.08-8.05 217.83-7.18 217.58-6.3 216.93-5.05 216.28-3.8 215.03-2.53 213.78-1.25 211.83-0.38 209.88 0.5 206.98 0.5ZM199.28-15.5L199.28-15.5 213.73-15.5Q213.63-18.1 212.63-19.73 211.63-21.35 210.08-22.15 208.53-22.95 206.78-22.95L206.78-22.95Q203.63-22.95 201.63-20.93 199.63-18.9 199.28-15.5ZM229.63 0L224.88 0 224.88-26.5 229.63-26.5 229.63-23.2 229.83-23.2Q230.68-24.7 232.33-25.85 233.98-27 236.98-27L236.98-27Q237.83-27 238.53-26.93 239.23-26.85 239.23-26.85L239.23-26.85 239.23-22.3Q239.23-22.3 238.45-22.38 237.68-22.45 236.83-22.45L236.83-22.45Q233.38-22.45 231.5-20.48 229.63-18.5 229.63-14.05L229.63-14.05 229.63 0Z" opacity="1" transform="matrix(1,0,0,1,0,0)" fill="black" class="wordmark-text-0" id="SvgjsPath2094"></path></svg></g></svg></g></svg></g></svg></g><g><svg viewBox="0 0 156.28458921999746 156.28458921999746" height="156.28458921999746" width="156.28458921999746"><g><svg></svg></g><g id="SvgjsG2093"><svg viewBox="0 0 156.28458921999746 156.28458921999746" height="156.28458921999746" width="156.28458921999746"><g><path d="M0 78.142c0-43.157 34.986-78.142 78.142-78.142 43.157 0 78.142 34.986 78.143 78.142 0 43.157-34.986 78.142-78.143 78.143-43.157 0-78.142-34.986-78.142-78.143zM78.142 150.384c39.898 0 72.242-32.344 72.242-72.242 0-39.898-32.344-72.242-72.242-72.241-39.898 0-72.242 32.344-72.241 72.241 0 39.898 32.344 72.242 72.241 72.242z" fill="black" stroke="transparent"></path></g><g transform="matrix(1,0,0,1,35.70167405145553,35.70165973351964)"><svg viewBox="0 0 84.8812411170864 84.88126975295818" height="84.88126975295818" width="84.8812411170864"><g><svg xmlns="http://www.w3.org/2000/svg" viewBox="16.000179277640626 15.99999434982138 479.9998437578025 480.0000056924514" x="0" y="0" height="84.88126975295818" width="84.8812411170864" class="icon-dxe-0" data-fill-palette-color="accent" id="SvgjsSvg2092"><g fill="black"><path d="M478.188 287.844L476.425 286.67A31.8 31.8 0 0 0 480 272V224A16.02 16.02 0 0 0 464 208H448A32.036 32.036 0 0 0 416 240V272A31.8 31.8 0 0 0 419.575 286.669L417.812 287.844A40 40 0 0 0 408 297.142V256A16.02 16.02 0 0 0 392 240H376A32.036 32.036 0 0 0 344 272V297.142A40 40 0 0 0 334.188 287.844L332.425 286.67A31.8 31.8 0 0 0 336 272V224A16.02 16.02 0 0 0 320 208H304A32.036 32.036 0 0 0 272 240V272A31.8 31.8 0 0 0 275.575 286.669L273.812 287.844A39.92 39.92 0 0 0 256 321.126V352A8 8 0 0 0 264 360H328V384A8 8 0 0 0 336 392H416A8 8 0 0 0 424 384V360H488A8 8 0 0 0 496 352V321.126A39.92 39.92 0 0 0 478.188 287.844M448 288A16.02 16.02 0 0 1 432 272V256H464V272A16.02 16.02 0 0 1 448 288M448 224H464V240H432A16.02 16.02 0 0 1 448 224M426.688 301.157L430.38 298.694A31.8 31.8 0 0 0 440 302.987V344H422.936A39.85 39.85 0 0 0 416 329.142V321.126A23.95 23.95 0 0 1 426.688 301.156M360 304V288H392V304A16 16 0 0 1 360 304M376 256H392V272H360A16.02 16.02 0 0 1 376 256M336 321.126V329.142A39.85 39.85 0 0 0 329.064 344H312V302.987A31.9 31.9 0 0 0 321.619 298.694L325.312 301.157A23.95 23.95 0 0 1 336 321.126M288 272V256H320V272A16 16 0 0 1 288 272M304 224H320V240H288A16.02 16.02 0 0 1 304 224M272 321.126A23.95 23.95 0 0 1 282.688 301.156L286.38 298.695A31.8 31.8 0 0 0 296 302.987V344H272ZM408 376H344V353.126A23.95 23.95 0 0 1 354.688 333.156L358.38 330.695A31.91 31.91 0 0 0 393.619 330.694L397.312 333.157A23.95 23.95 0 0 1 408 353.126ZM480 344H456V302.987A31.9 31.9 0 0 0 465.619 298.694L469.312 301.157A23.95 23.95 0 0 1 480 321.126Z" fill="black"></path><path d="M152 152H160A24.03 24.03 0 0 0 184 128V120H168V128A8.01 8.01 0 0 1 160 136H152Z" fill="black"></path><circle cx="144" cy="104" r="8.0" fill="black"></circle><circle cx="192" cy="104.29773" r="8.0" fill="black"></circle><path d="M57.49 436.65A8 8 0 0 0 64 440V488A8 8 0 0 0 72 496H304A8 8 0 0 0 311.892 489.315L323.892 417.315 308.108 414.685 297.223 480H272V392H271.993A7.98 7.98 0 0 0 269.657 386.343L261.657 378.343A8 8 0 0 0 252.422 376.845L222.112 392H219.312L221.657 389.657A8 8 0 0 0 224 384V368A8 8 0 0 0 216 360H192A8 8 0 0 0 188.422 360.845L159.069 375.52 103.03 361.511 95.892 318.685 80.108 321.315 88.108 369.315A8 8 0 0 0 94.06 375.761L152 390.246V424H68.117L32.462 374.083 53.229 256.4A23.9 23.9 0 0 1 65.208 239.59L115.945 211.404 160.572 322.97A8 8 0 0 0 175.428 322.971L220.055 211.404 252.115 229.215 259.885 215.23 221.58 193.949 209.853 176.357A63.86 63.86 0 0 0 232 128V48A32.036 32.036 0 0 0 200 16H168A31.86 31.86 0 0 0 146.868 24H128A24.027 24.027 0 0 0 104 48V128A63.86 63.86 0 0 0 126.147 176.357L114.42 193.949 57.438 225.605A39.83 39.83 0 0 0 37.474 253.62L16.122 374.61A8 8 0 0 0 17.49 380.65ZM193.89 376H208V380.686L194.343 394.343A8 8 0 0 0 200 408H224A8 8 0 0 0 227.578 407.155L251 395.445 228.155 424H168V388.944ZM160 440H232A8 8 0 0 0 238.247 436.998L256 414.806V480H80V440ZM136.587 189.54L157.28 215.407 141.208 231.48 128.99 200.936ZM207.01 200.937L194.792 231.479 178.72 215.406 199.413 189.541ZM168 203.194L158.475 191.288A64 64 0 0 0 177.525 191.288ZM168 298.459L147.673 247.641 168 227.314 188.327 247.641ZM168 32H200A16.02 16.02 0 0 1 216 48V64H168A16 16 0 0 1 168 32M120 48A8.01 8.01 0 0 1 128 40H137.013A31.97 31.97 0 0 0 137.682 58.215L120 67.055ZM120 128V84.944L146.51 71.69A31.88 31.88 0 0 0 168 80H216V128A48 48 0 0 1 120 128" fill="black"></path></g></svg></g></svg></g></svg></g></svg></g></svg></g><defs><mask></mask></defs></svg><rect width="395.52" height="106.08188269429053" fill="black" stroke="none" visibility="hidden"></rect></g></mask></svg><rect width="395.52" height="106.08188269429053" fill="black" stroke="none" visibility="hidden"></rect></g></mask></svg><rect width="395.52" height="106.08188269429053" fill="black" stroke="none" visibility="hidden"></rect></g></mask><linearGradient x1="0" x2="1" y1="0.578" y2="0.595" id="49dc2223-d3f5-42ab-9ce0-30283e9ea784"><stop stop-color="#6ee2f5" offset="0"></stop><stop stop-color="#6454f0" offset="1"></stop></linearGradient></svg><rect width="395.52" height="106.08188269429053" fill="none" stroke="none" visibility="hidden"></rect></g></svg></g></svg>